<?xml version="1.0" encoding="UTF-8"?>
<svg version="1.1" xmlns="http://www.w3.org/2000/svg" width="291" height="533">
<path d="M0 0 C0.969375 0.165 1.93875 0.33 2.9375 0.5 C5.9052331 1.29133785 5.9052331 1.29133785 8 0 C9.96163213 -0.09723766 11.92658539 -0.13076602 13.890625 -0.1328125 C15.07527344 -0.13410156 16.25992188 -0.13539062 17.48046875 -0.13671875 C18.72441406 -0.13285156 19.96835938 -0.12898438 21.25 -0.125 C22.47847656 -0.12886719 23.70695313 -0.13273437 24.97265625 -0.13671875 C26.16246094 -0.13542969 27.35226563 -0.13414063 28.578125 -0.1328125 C29.66512695 -0.13168457 30.75212891 -0.13055664 31.87207031 -0.12939453 C34.99920239 -0.000033 37.92218154 0.44893612 41 1 C42.79643598 1.19752422 44.59479156 1.37824134 46.39453125 1.54296875 C71.79215186 4.04142251 101.02804866 8.20630825 122 24 C122.95712891 24.68642578 122.95712891 24.68642578 123.93359375 25.38671875 C142.87081456 40.10629573 149.90174003 70.32604425 153 93 C153.65469743 98.49367339 154.22537852 103.99250098 154.75 109.5 C154.81529907 110.18059479 154.88059814 110.86118958 154.94787598 111.56240845 C156.98499756 133.24989299 156.98499756 133.24989299 154.52905273 143.41430664 C152.24741343 153.94162372 152.41174285 164.61496375 152.26953125 175.33984375 C152.23016585 177.56045126 152.18959229 179.78103764 152.14787292 182.00160217 C152.042201 187.79630479 151.95275311 193.59114409 151.86688232 199.38616943 C151.77602438 205.31946846 151.66954768 211.25248597 151.56445312 217.18554688 C151.36116483 228.79014355 151.17504496 240.3949453 151 252 C151.94544678 252.30470215 152.89089355 252.6094043 153.86499023 252.92333984 C160.62170507 255.24380651 165.70453648 259.77919947 169.21875 265.9765625 C170.51314746 269.32905193 170.11556548 271.65330356 169 275 C166.57344687 277.48995476 165.26673225 277.97583947 161.765625 278.29296875 C160.02539062 278.24076172 160.02539062 278.24076172 158.25 278.1875 C157.07953125 278.16042969 155.9090625 278.13335937 154.703125 278.10546875 C153.36507812 278.05326172 153.36507812 278.05326172 152 278 C150.76249031 308.40126867 149.78255099 339.00441794 152 369.375 C152.79348506 380.25049511 153.24435907 391.06644065 153.29956055 401.96954346 C153.3079778 403.5343185 153.32138225 405.09907736 153.34057617 406.66375732 C153.43420541 415.12492014 153.02631137 423.35572444 151.73046875 431.7265625 C151.62237381 432.46675629 151.51427887 433.20695007 151.40290833 433.96957397 C150.56403036 438.83027418 148.98918562 441.98142828 146 446 C143.2881528 449.99672419 142.2587098 453.47802924 141.31640625 458.21484375 C141.10394508 459.25313072 141.10394508 459.25313072 140.88719177 460.31239319 C140.43667598 462.51906403 139.99860687 464.72794022 139.5625 466.9375 C131.38109286 507.99153458 131.38109286 507.99153458 119 517 C116.05865059 518.38592396 113.14381857 519.21134448 110 520 C109.17242187 520.29261719 108.34484375 520.58523438 107.4921875 520.88671875 C57.45282831 536.83886346 -16.17691765 540.37957205 -65 518 C-76.86943064 511.42090734 -81.39397212 501.89585655 -85.19921875 489.1171875 C-85.86739682 486.73757934 -86.51672932 484.35253761 -87.140625 481.9609375 C-87.87811756 479.07583973 -87.87811756 479.07583973 -89.08203125 476.87109375 C-90.1455912 474.70324176 -90.30048125 473.09155621 -90.4375 470.6875 C-91.33748346 460.54768637 -92.40345029 451.12655863 -98.64453125 442.8359375 C-100.49335826 440.33176258 -101.26160737 438.01510323 -102 435 C-102.16564453 434.33097656 -102.33128906 433.66195313 -102.50195312 432.97265625 C-104.0920293 425.91999365 -104.30524289 419.14840765 -104.25 411.9375 C-104.24540771 410.65891113 -104.24081543 409.38032227 -104.23608398 408.06298828 C-104.12473767 392.47309962 -103.20381344 376.90880267 -102.38026428 361.34408569 C-101.96978602 353.54371965 -101.61505306 345.74284268 -101.3125 337.9375 C-101.26424072 336.82745605 -101.21598145 335.71741211 -101.16625977 334.57373047 C-101.00088851 330.12164258 -100.92067423 325.85959712 -101.54296875 321.44140625 C-102 318 -102 318 -101 315 C-100.92870624 313.11321069 -100.91594666 311.22395025 -100.9375 309.3359375 C-100.94523437 308.21316406 -100.95296875 307.09039062 -100.9609375 305.93359375 C-100.98672193 303.58463258 -101.01275841 301.23567416 -101.0390625 298.88671875 C-101.08281256 292.49191806 -100.86492229 286.33825864 -100 280 C-100.969375 279.855625 -101.93875 279.71125 -102.9375 279.5625 C-103.88882813 279.41941406 -103.88882813 279.41941406 -104.859375 279.2734375 C-106.34352223 279.08385665 -107.8349504 278.94676491 -109.328125 278.8515625 C-113.00165364 278.59611846 -115.41101869 278.37350034 -118.5625 276.375 C-120.59170292 273.02240387 -120.46627876 270.8634526 -120 267 C-117.84552782 261.33033636 -114.80413635 257.38355316 -109.30078125 254.66821289 C-107.82158203 254.01453735 -107.82158203 254.01453735 -106.3125 253.34765625 C-105.31863281 252.90558838 -104.32476562 252.46352051 -103.30078125 252.00805664 C-102.54152344 251.67539795 -101.78226563 251.34273926 -101 251 C-101.06132538 237.87342177 -101.1385141 224.74704049 -101.23571491 211.62067604 C-101.28036039 205.52496295 -101.31962949 199.42931581 -101.34643555 193.33349609 C-101.37252637 187.44597223 -101.41297001 181.55870291 -101.46318626 175.67133713 C-101.47981586 173.43001863 -101.49135438 171.18865615 -101.49761391 168.9472847 C-101.5072974 165.79743281 -101.53540798 162.64822644 -101.56762695 159.49853516 C-101.56547432 158.1218013 -101.56547432 158.1218013 -101.5632782 156.71725464 C-101.64319728 151.15912294 -102.52101501 146.45902295 -104.33155632 141.1975441 C-105.33210865 137.90817518 -105.27103466 134.86158595 -105.14453125 131.4453125 C-105.12283371 130.77764862 -105.10113617 130.10998474 -105.07878113 129.42208862 C-105.03005084 128.02539841 -104.97339622 126.62896281 -104.90893555 125.23291016 C-104.81300307 123.13599628 -104.74328345 121.03946753 -104.67773438 118.94140625 C-104.38773133 110.83052351 -103.49728319 102.9828959 -102 95 C-101.72425172 92.95899134 -101.45226368 90.91746265 -101.1875 88.875 C-98.22166574 69.77959019 -91.24042577 52.3334791 -81 36 C-80.608125 35.36320312 -80.21625 34.72640625 -79.8125 34.0703125 C-77.84580215 30.98198228 -75.69846603 28.46716894 -73 26 C-72.5452832 25.56042969 -72.09056641 25.12085937 -71.62207031 24.66796875 C-66.76839123 20.19491253 -61.60314409 17.5764071 -55.5625 15 C-54.56839111 14.57138672 -53.57428223 14.14277344 -52.55004883 13.70117188 C-39.19021916 8.15696277 -25.16211394 5.1173238 -10.98950195 2.44726562 C-8.94037684 2.07024725 -8.94037684 2.07024725 -7 1 C-5 1 -3 1 -1 1 C-0.67 0.67 -0.34 0.34 0 0 Z M14.23828125 11.4375 C13.12001953 11.52773437 12.00175781 11.61796875 10.84960938 11.7109375 C9.68236328 11.80632813 8.51511719 11.90171875 7.3125 12 C6.13365234 12.09539063 4.95480469 12.19078125 3.74023438 12.2890625 C0.82673455 12.52497342 -2.08667051 12.76199633 -5 13 C-5 13.33 -5 13.66 -5 14 C4.77529529 15.58477872 14.15989427 16.18912548 24.06768799 15.97949219 C40.26242663 15.65868426 55.93596803 16.82156431 72 19 C72.66 18.01 73.32 17.02 74 16 C62.0428804 13.68870111 50.14110466 12.52994127 38 11.8125 C37.28110596 11.76998108 36.56221191 11.72746216 35.8215332 11.68365479 C28.58072942 11.26213509 21.48069846 10.84928337 14.23828125 11.4375 Z M-38.1171875 15.20703125 C-38.88933594 15.46419922 -39.66148438 15.72136719 -40.45703125 15.98632812 C-41.25496094 16.25896484 -42.05289063 16.53160156 -42.875 16.8125 C-43.66519531 17.07353516 -44.45539063 17.33457031 -45.26953125 17.60351562 C-49.70773423 19.09891679 -53.85804052 20.78252008 -58 23 C-58 23.33 -58 23.66 -58 24 C-53.09773939 25.16508424 -53.09773939 25.16508424 -48.5 23.625 C-47.675 23.08875 -46.85 22.5525 -46 22 C-42.10497636 21.19413304 -39.79038426 20.73653858 -36 22 C-33.58988749 21.5987822 -31.19394501 21.10870298 -28.8125 20.5625 C-26.90404297 20.13130859 -26.90404297 20.13130859 -24.95703125 19.69140625 C-23.98121094 19.46324219 -23.00539062 19.23507813 -22 19 C-23.64828161 15.70343678 -26.66994907 15.24171391 -30 14 C-33.36501456 14 -35.06568347 14.18715111 -38.1171875 15.20703125 Z M-16 16 C-14.515 16.99 -14.515 16.99 -13 18 C-11.31503702 17.03114628 -9.64821244 16.03013277 -8 15 C-8 14.67 -8 14.34 -8 14 C-12.49304582 13.57496554 -12.49304582 13.57496554 -16 16 Z M84 14 C83.34 14.66 82.68 15.32 82 16 C79.34462628 16.56520003 76.70855287 16.73788198 74 17 C75.66391652 20.16897323 75.66391652 20.16897323 78.42675781 20.78369141 C79.42545898 20.97108887 80.42416016 21.15848633 81.453125 21.3515625 C82.54753906 21.56296875 83.64195312 21.774375 84.76953125 21.9921875 C85.91808594 22.20101563 87.06664062 22.40984375 88.25 22.625 C89.94962891 22.94984375 89.94962891 22.94984375 91.68359375 23.28125 C95.84443924 24.07146919 100.00342318 24.84194652 104.18652344 25.50537109 C107 26 107 26 110 27 C110.66 26.01 111.32 25.02 112 24 C98.37111395 17.8424789 98.37111395 17.8424789 84 14 Z M-31 26 C-30.52949219 26.45761719 -30.05898437 26.91523438 -29.57421875 27.38671875 C-26.95397151 30.07198453 -26.11529943 32.22584669 -25.5625 35.9375 C-26.16517835 40.15624846 -27.73940542 41.31038635 -31 44 C-33.67323138 44.91982738 -36.00661755 45.5679645 -38.75 46.08984375 C-39.85359863 46.31940514 -39.85359863 46.31940514 -40.97949219 46.55360413 C-42.52743583 46.87088291 -44.07732611 47.17879423 -45.62890625 47.4777832 C-47.9980782 47.93712739 -50.35778607 48.4319982 -52.71875 48.93164062 C-54.22873622 49.23651474 -55.73914186 49.53932038 -57.25 49.83984375 C-58.3033252 50.06147438 -58.3033252 50.06147438 -59.37792969 50.2875824 C-63.57746684 51.07260778 -66.2336402 51.07158181 -70 49 C-71.70294787 47.71332828 -73.37946188 46.38903267 -75 45 C-76.98 47.64 -78.96 50.28 -81 53 C-78.74739402 57.50521197 -77.61311388 58.24496098 -73.28125 60.24609375 C-67.43563633 62.17794895 -60.92795947 61.16234499 -55 60 C-54.3915625 59.65582031 -53.783125 59.31164063 -53.15625 58.95703125 C-50.37024586 57.72048956 -48.35045507 57.91079674 -45.3125 58.0625 C-40.06698174 58.1499253 -35.19490709 57.63406908 -30.0625 56.625 C-1.19329883 51.10171403 28.71133934 51.23897903 57.87890625 53.74902344 C63.45076507 54.19707341 69.03286546 54.42308415 74.6171875 54.65625 C78.26711547 55.02714337 81.49807805 55.92696453 85 57 C90.6063426 57.93439043 95.90346252 58.04007537 101.58203125 57.83984375 C104 58 104 58 107 60 C110.21506353 60.79645017 110.21506353 60.79645017 113.8125 61.3125 C115.01519531 61.51488281 116.21789062 61.71726563 117.45703125 61.92578125 C121.55799048 62.01168889 123.55995183 61.16872602 127 59 C129.48522988 56.31326499 130.8418238 54.47452861 132 51 C130.48106876 47.72150183 130.48106876 47.72150183 128 45 C125.5 44.16666667 125.5 44.16666667 123 45 C122.12021484 45.99386719 122.12021484 45.99386719 121.22265625 47.0078125 C117.54870576 50.30080854 113.95541565 49.52990728 109.21484375 49.390625 C104.41270291 49.02593466 99.71813788 48.19645965 95 47.25 C94.19941162 47.09337891 93.39882324 46.93675781 92.57397461 46.77539062 C87.23358104 45.60397117 82.95262624 43.95262624 79 40 C78.75 36.5625 78.75 36.5625 79 33 C82.42094242 30.71937172 83.68187222 30.78074993 87.6875 30.875 C89.17830078 30.90207031 89.17830078 30.90207031 90.69921875 30.9296875 C91.45847656 30.95289063 92.21773437 30.97609375 93 31 C93 30.01 93 29.02 93 28 C88.87717581 27.19673321 84.75139109 26.40971967 80.625 25.625 C79.48804688 25.40328125 78.35109375 25.1815625 77.1796875 24.953125 C59.8716092 21.68382132 42.96859307 20.62649323 25.375 20.6875 C23.86228012 20.68873871 23.86228012 20.68873871 22.31900024 20.69000244 C4.14162366 20.72425006 -13.24834769 21.90483447 -31 26 Z M-46 29 C-46 29.66 -46 30.32 -46 31 C-45.01 30.67 -44.02 30.34 -43 30 C-43.99 29.67 -44.98 29.34 -46 29 Z M106 32 C106.33 32.66 106.66 33.32 107 34 C107.66 33.67 108.32 33.34 109 33 C108.01 32.67 107.02 32.34 106 32 Z M85 35 C85.40311361 37.51686936 85.40311361 37.51686936 87 40 C92.12964287 41.82580509 96.59601686 42.22516596 102 42 C102.33 40.68 102.66 39.36 103 38 C100.75113762 37.49490792 98.50086131 36.99610821 96.25 36.5 C94.99703125 36.2215625 93.7440625 35.943125 92.453125 35.65625 C88.93087755 34.87553097 88.93087755 34.87553097 85 35 Z M-54 39 C-53.67 39.99 -53.34 40.98 -53 42 C-47.01488629 41.65697965 -42.24882694 41.17692157 -37 38 C-37.33 37.34 -37.66 36.68 -38 36 C-44.20970773 35.66733709 -48.28264895 36.54970669 -54 39 Z M-21 60 C-22.87679443 60.20894897 -22.87679443 60.20894897 -24.79150391 60.42211914 C-28.07973058 60.69935094 -28.07973058 60.69935094 -30 63 C-30.1966352 65.45850402 -30.27694585 67.81387062 -30.2734375 70.2734375 C-30.29372963 71.75261169 -30.31458047 73.2317783 -30.3359375 74.7109375 C-30.35852832 77.04368476 -30.37500284 79.3761328 -30.38085938 81.70898438 C-30.39039029 83.96018637 -30.42417544 86.21003838 -30.4609375 88.4609375 C-30.45589203 89.15585297 -30.45084656 89.85076843 -30.44564819 90.56674194 C-30.51375969 93.92489217 -30.77849643 95.71100843 -32.84619141 98.40869141 C-36.8682963 101.3803622 -40.72898216 101.13260357 -45.51171875 101.09765625 C-46.23994339 101.0962413 -46.96816803 101.09482635 -47.71846008 101.09336853 C-50.04151539 101.08777659 -52.36447388 101.07522562 -54.6875 101.0625 C-56.26367048 101.05748396 -57.83984248 101.05292123 -59.41601562 101.04882812 C-63.27738098 101.0378098 -67.13867408 101.02055074 -71 101 C-76.07324556 135.70417044 -75.14750628 171.02739501 -75 206 C-69.42220348 203.80019778 -63.90258685 201.53170695 -58.4375 199.0625 C-36.17905442 189.58116642 -11.4765589 185.81919939 12.6328125 185.8671875 C14.24783157 185.86575241 14.24783157 185.86575241 15.89547729 185.86428833 C18.15606749 185.86361203 20.4166597 185.86542767 22.67724609 185.86962891 C26.12211487 185.87499551 29.56685391 185.86965972 33.01171875 185.86328125 C35.21875029 185.86394192 37.42578174 185.86522286 39.6328125 185.8671875 C40.65384064 185.86516327 41.67486877 185.86313904 42.72683716 185.86105347 C47.06221268 185.87516875 51.23435339 185.9705788 55.52294922 186.63330078 C59.1127567 187.38626186 59.1127567 187.38626186 62 185 C62.73343428 181.93443402 62.73343428 181.93443402 63 179 C64.32 179.33 65.64 179.66 67 180 C66.79375 180.94875 66.5875 181.8975 66.375 182.875 C66.189375 184.421875 66.189375 184.421875 66 186 C68.24159335 188.24159335 68.98563982 188.37271485 72.0078125 188.89453125 C73.22839355 189.11641113 73.22839355 189.11641113 74.47363281 189.34277344 C75.34858398 189.4977832 76.22353516 189.65279297 77.125 189.8125 C90.53635007 192.37001327 102.61451405 195.85182433 114.68652344 202.32128906 C118.15099996 204.16912936 121.14483879 205.33297435 125 206 C125.16720675 177.33930873 125.16720675 177.33930873 124.5625 148.6875 C124.52326416 147.54635742 124.48402832 146.40521484 124.44360352 145.22949219 C124.34517337 140.13044517 124.34517337 140.13044517 123.5 135.13110352 C122.77335547 132.03399408 122.7747403 129.00523331 122.68359375 125.828125 C122.66281265 125.1457074 122.64203156 124.46328979 122.62062073 123.76019287 C122.55547948 121.59022644 122.49640596 119.42014376 122.4375 117.25 C122.39428103 115.77472779 122.35066568 114.29946713 122.30664062 112.82421875 C122.19983482 109.21626834 122.09846847 105.60818867 122 102 C119.06106813 100.53053407 116.475734 100.92580387 113.19921875 100.97265625 C111.81575776 100.98530831 110.43229408 100.99766884 109.04882812 101.00976562 C106.86978764 101.03453023 104.69088725 101.06244792 102.51196289 101.09594727 C100.40770611 101.12628449 98.30362547 101.14396983 96.19921875 101.16015625 C94.93940186 101.17699463 93.67958496 101.19383301 92.3815918 101.21118164 C87.9543733 100.93470023 85.15053874 100.15053874 82 97 C81.0839385 94.24533393 80.88927715 91.77149544 80.9375 88.8828125 C80.94523438 88.11066406 80.95296875 87.33851562 80.9609375 86.54296875 C80.98685299 84.93880004 81.01289342 83.33463334 81.0390625 81.73046875 C81.08287637 77.34177942 80.76151473 73.33791429 80 69 C80.33 68.67 80.66 68.34 81 68 C81.16666667 65 81.16666667 65 81 62 C79.30179445 60.30179445 77.03433339 60.54811046 74.70703125 60.28125 C73.60037109 60.15363281 72.49371094 60.02601562 71.35351562 59.89453125 C69.60071289 59.69923828 69.60071289 59.69923828 67.8125 59.5 C66.69423828 59.36980469 65.57597656 59.23960938 64.42382812 59.10546875 C35.73685136 55.84670719 7.59812287 56.60074543 -21 60 Z M-80 62 C-89.74045635 71.39682527 -94.24137954 80.3708865 -96 93.75 C-96.09773712 94.42877197 -96.19547424 95.10754395 -96.2961731 95.80688477 C-97.85863705 106.68834707 -98.44391359 117.5128801 -98.4375 128.5 C-98.43790283 129.1755896 -98.43830566 129.8511792 -98.4387207 130.54724121 C-98.43921965 138.71525377 -98.43921965 138.71525377 -96.98291016 146.70996094 C-95.6052636 151.88901243 -95.81481833 156.97285687 -95.90234375 162.296875 C-95.9064086 164.49478878 -95.90829319 166.69270747 -95.90820312 168.890625 C-95.91628805 172.31863449 -95.93740265 175.7443384 -95.99633789 179.171875 C-96.51798005 196.54873774 -96.51798005 196.54873774 -88.32641602 211.16503906 C-86.10070064 212.92057236 -84.77681373 213.64252148 -82 214 C-80.33153266 212.30504044 -80.33153266 212.30504044 -79 210 C-79.31397886 208.32957905 -79.65229603 206.66372799 -80 205 C-80.09391584 202.28902179 -80.13997883 199.60499828 -80.1328125 196.89453125 C-80.13426773 196.10705002 -80.13572296 195.31956879 -80.13722229 194.50822449 C-80.13946969 191.94293449 -80.1331763 189.37777686 -80.125 186.8125 C-80.12311676 185.93053955 -80.12123352 185.0485791 -80.11929321 184.13989258 C-80.0512924 156.99126233 -78.38925366 130.0980006 -76.16821289 103.05178833 C-76.01105345 101.13482528 -75.85603176 99.2176873 -75.70117188 97.30053711 C-75.61416016 96.23327393 -75.52714844 95.16601074 -75.4375 94.06640625 C-75.36402344 93.16349854 -75.29054688 92.26059082 -75.21484375 91.33032227 C-74.92637284 88.20139635 -74.46890231 85.10647783 -74 82 C-73.82772099 80.50063423 -73.6614064 79.00057514 -73.5 77.5 C-73.08411307 73.65139552 -72.57022334 69.82864243 -72 66 C-74.64 64.68 -77.28 63.36 -80 62 Z M87 63 C86.13248907 70.20784994 85.84579884 77.30601265 85.875 84.5625 C85.87113281 85.55830078 85.86726562 86.55410156 85.86328125 87.58007812 C85.86457031 88.52431641 85.86585938 89.46855469 85.8671875 90.44140625 C85.86831543 91.29420166 85.86944336 92.14699707 85.87060547 93.02563477 C85.78223388 95.00201736 85.78223388 95.00201736 87 96 C91.05624689 96.33275622 95.12352413 96.42707089 99.19091797 96.55761719 C101.22790534 96.62427696 103.26424098 96.7022186 105.30078125 96.78125 C106.58855469 96.82507813 107.87632812 96.86890625 109.203125 96.9140625 C110.97671387 96.9752124 110.97671387 96.9752124 112.78613281 97.03759766 C115.68672113 97.00366492 118.19064186 96.68416133 121 96 C120.855625 94.700625 120.71125 93.40125 120.5625 92.0625 C120.48128906 91.33160156 120.40007812 90.60070312 120.31640625 89.84765625 C120.18113386 87.98859771 120.18113386 87.98859771 119 87 C118.85575512 85.60978423 118.77312811 84.21302699 118.71875 82.81640625 C118.66267578 81.54893555 118.66267578 81.54893555 118.60546875 80.25585938 C118.55326172 78.92264648 118.55326172 78.92264648 118.5 77.5625 C118.43121724 75.8136346 118.35848817 74.06491862 118.28125 72.31640625 C118.25095703 71.53724854 118.22066406 70.75809082 118.18945312 69.95532227 C118.11048278 67.92190634 118.11048278 67.92190634 117 66 C114.79294525 65.43528374 114.79294525 65.43528374 112.1171875 65.1484375 C111.11429688 65.01953125 110.11140625 64.890625 109.078125 64.7578125 C108.02109375 64.63148437 106.9640625 64.50515625 105.875 64.375 C104.84117187 64.2409375 103.80734375 64.106875 102.7421875 63.96875 C97.45530509 63.3078897 92.32735531 62.83399176 87 63 Z M128.95703125 62.99609375 C127.89548828 63.70958984 127.89548828 63.70958984 126.8125 64.4375 C126.09707031 64.91058594 125.38164062 65.38367188 124.64453125 65.87109375 C124.10183594 66.24363281 123.55914062 66.61617188 123 67 C123.10957031 68.19367188 123.21914062 69.38734375 123.33203125 70.6171875 C123.78069364 75.51721827 124.22358109 80.41776284 124.66601562 85.31835938 C124.90002645 87.89795239 125.1355188 90.47737239 125.37304688 93.05664062 C128.48341545 126.86127557 128.48341545 126.86127557 129 143 C129.04366699 144.30211426 129.08733398 145.60422852 129.13232422 146.94580078 C129.72652282 164.92005582 130.1376899 182.87588054 129.96313477 200.86083984 C129.95467529 202.01148926 129.94621582 203.16213867 129.9375 204.34765625 C129.92589844 205.34804932 129.91429687 206.34844238 129.90234375 207.37915039 C129.99091075 209.75606736 130.31656584 211.73141564 131 214 C132.34313399 213.35330586 133.67391178 212.68096422 135 212 C135.78375 211.62875 136.5675 211.2575 137.375 210.875 C141.90901287 207.63641938 145.43274204 203.85791782 146.54428101 198.25784302 C146.73822699 195.06549805 146.75245014 191.920436 146.69921875 188.72265625 C146.70910576 186.97377357 146.70910576 186.97377357 146.7191925 185.18955994 C146.73661491 181.47995196 146.71473871 177.77202725 146.6875 174.0625 C146.67616636 170.35688063 146.67361132 166.65176317 146.6879425 162.94615173 C146.69527563 160.64663691 146.68730716 158.34700488 146.6615448 156.04762268 C146.66391764 150.20090951 147.13035934 145.37969681 149.31884766 139.9299469 C150.48736707 136.6191157 150.4023348 133.34916442 150.3125 129.875 C150.303396 129.15505859 150.29429199 128.43511719 150.28491211 127.69335938 C150.54953404 115.55100769 150.54953404 115.55100769 147 105 C146.97927836 102.79166562 147.00904837 100.58278465 147.0625 98.375 C147.10582323 93.02999697 146.73589223 89.00345408 145 84 C144.938125 82.88625 144.87625 81.7725 144.8125 80.625 C143.79118647 76.06837039 141.66669314 73.62077996 138.7109375 70.0859375 C137 68 137 68 135.25 65 C133.48962798 62.18340476 132.00152444 61.51168503 128.95703125 62.99609375 Z M-54.9375 64.4375 C-56.53561523 64.65889648 -56.53561523 64.65889648 -58.16601562 64.88476562 C-60.77867102 65.24795987 -63.38975737 65.61991707 -66 66 C-69.24084715 80.87176701 -69.24084715 80.87176701 -70 96 C-62.92917578 97.16980548 -56.14111379 96.91832869 -49 96.5625 C-47.84371094 96.51029297 -46.68742187 96.45808594 -45.49609375 96.40429688 C-42.66372647 96.27555291 -39.83179765 96.14063319 -37 96 C-35.34454364 91.68903343 -34.79556928 88.32950055 -35.0234375 83.7265625 C-35.075 82.57285156 -35.1265625 81.41914062 -35.1796875 80.23046875 C-35.24414062 79.04066406 -35.30859375 77.85085937 -35.375 76.625 C-35.43171875 75.41199219 -35.4884375 74.19898437 -35.546875 72.94921875 C-35.68783782 69.96550563 -35.83920246 66.98269904 -36 64 C-42.51889882 62.60375359 -48.39017023 63.48242707 -54.9375 64.4375 Z M-72 217 C-71.31201929 222.32237337 -71.31201929 222.32237337 -68.23046875 226.2265625 C-67.21919922 226.42378906 -67.21919922 226.42378906 -66.1875 226.625 C-61.60248653 227.90781063 -59.87994864 230.18601397 -57 234 C-50.98949247 239.84354899 -44.23768127 241.17950653 -36.0625 241.375 C-26.7376543 241.1441373 -18.3207885 239.02992483 -11 233 C-9.19203897 230.43389334 -9.19203897 230.43389334 -8 228 C-4.38134506 225.58756337 -2.4162557 225.65963555 1.8984375 225.47265625 C3.27865661 225.40190257 4.65886462 225.33093223 6.0390625 225.25976562 C8.20686546 225.15893187 10.37475427 225.06251038 12.54296875 224.97094727 C14.64136699 224.87897512 16.7384287 224.77035265 18.8359375 224.66015625 C20.08938965 224.60480713 21.3428418 224.54945801 22.63427734 224.49243164 C25.99304598 224.22889924 25.99304598 224.22889924 28.44946289 222.48364258 C31.91281501 220.46901725 35.07762998 220.57004468 38.97265625 220.6015625 C39.75639618 220.59755936 40.54013611 220.59355621 41.34762573 220.58943176 C43.91961484 220.58355288 46.49061128 220.6026435 49.0625 220.625 C50.38183029 220.62948654 50.38183029 220.62948654 51.72781372 220.63406372 C71.97501938 220.7144434 92.16556628 222.11593267 112.25390625 224.66015625 C115.46059003 224.951065 117.04368952 224.87262863 120 224 C119.92953921 221.04064699 119.86187342 218.78534742 119 216 C116.63110378 214.19224657 115.14670686 213.37047447 112.4375 212.375 C111.73858643 212.0955957 111.03967285 211.81619141 110.31958008 211.52832031 C54.39659258 190.26208594 -17.58482525 192.60699063 -72 217 Z M141.96875 212.8984375 C141.1540625 213.71570313 140.339375 214.53296875 139.5 215.375 C138.6853125 216.18710938 137.870625 216.99921875 137.03125 217.8359375 C134.04398171 221.01852718 133.87544133 222.68692042 133.87974548 226.94802856 C133.87837082 227.994133 133.87699615 229.04023743 133.87557983 230.11804199 C133.87917511 231.27034302 133.88277039 232.42264404 133.88647461 233.60986328 C133.88632858 234.81959808 133.88618256 236.02933289 133.8860321 237.27572632 C133.88661044 240.59784021 133.89163445 243.91989237 133.89860606 247.24199533 C133.90484662 250.71201808 133.90544396 254.1820416 133.90663147 257.65206909 C133.90974271 264.22521398 133.91795331 270.79834229 133.92798096 277.37147987 C133.93914852 284.85384834 133.94465417 292.33621759 133.94967639 299.81859231 C133.96013609 315.21240449 133.97773153 330.60620011 134 346 C137.32174672 347.0952397 137.79954132 347.0943335 141.1875 345.5 C144.28384347 343.18936957 144.28384347 343.18936957 145.0625 339.4375 C145.32654025 336.10790753 145.32654025 336.10790753 143.75 334.25 C143.1725 333.8375 142.595 333.425 142 333 C139.60350586 331.16426188 139.04959861 330.33697876 138.6015625 327.29296875 C138.68267194 316.54596808 138.68267194 316.54596808 142 312 C143.485 311.505 143.485 311.505 145 311 C145.12354475 305.78565139 145.2143108 300.5721531 145.2746582 295.35668945 C145.29981206 293.58244999 145.33393961 291.80831424 145.37719727 290.03442383 C145.43781463 287.48492882 145.46619927 284.93680249 145.48828125 282.38671875 C145.51408768 281.59287277 145.5398941 280.79902679 145.56648254 279.98112488 C145.62411301 277.476843 145.62411301 277.476843 145 274 C142.67809747 272.08212371 142.67809747 272.08212371 140 271 C137.15594718 266.73392076 137.63773947 263.08299804 138.5 258.125 C139.14976042 254.06399736 139.08205594 250.1027968 139 246 C141.97 245.505 141.97 245.505 145 245 C145 233.78 145 222.56 145 211 C143.65838211 210.88619689 143.65838211 210.88619689 141.96875 212.8984375 Z M-95 212 C-95 222.89 -95 233.78 -95 245 C-93.35 245.66 -91.7 246.32 -90 247 C-88.87209302 253.51679587 -88.87209302 253.51679587 -89.5625 256.125 C-90.22211813 258.12250778 -90.22211813 258.12250778 -89 260.375 C-87.70156372 263.78339524 -87.91527098 265.52886712 -89 269 C-90.6459651 270.68711423 -92.31237149 272.3545622 -94 274 C-95.66678237 279.77631772 -95.26056332 285.95978385 -95.29516602 291.91992188 C-95.30672287 293.30674411 -95.32723324 294.69352059 -95.35668945 296.08007812 C-95.39941727 298.09473065 -95.41294015 300.10993534 -95.42578125 302.125 C-95.44036377 303.32382812 -95.45494629 304.52265625 -95.4699707 305.7578125 C-94.90977614 309.62242748 -93.58378709 311.14703619 -91 314 C-89.953125 316.89453125 -89.953125 316.89453125 -89.25 319.8125 C-89.00765625 320.78832031 -88.7653125 321.76414062 -88.515625 322.76953125 C-88.26039062 323.87361328 -88.26039062 323.87361328 -88 325 C-86.515 324.505 -86.515 324.505 -85 324 C-85.00222061 323.26783768 -85.00444122 322.53567535 -85.00672913 321.78132629 C-85.02718295 314.70761674 -85.04237313 307.63391666 -85.05209541 300.56018543 C-85.05731538 296.81363334 -85.06405942 293.0670983 -85.07443237 289.32055664 C-85.1527271 259.87846334 -85.1527271 259.87846334 -84.53125 246.76171875 C-84.49277451 245.89448685 -84.45429901 245.02725494 -84.41465759 244.13374329 C-84.23957489 240.30095598 -84.02573202 236.47775405 -83.74047852 232.65161133 C-83.34000423 224.91974328 -83.883006 220.45878542 -89.07592773 214.5390625 C-91.13823949 212.67034957 -91.13823949 212.67034957 -95 212 Z M-78 218 C-77 220 -77 220 -77 220 Z M-78 223 C-77.67 224.65 -77.34 226.3 -77 228 C-76.34 227.01 -75.68 226.02 -75 225 C-75.99 224.34 -76.98 223.68 -78 223 Z M31.2109375 227.45703125 C27.23735859 229.3664761 23.97132309 229.54995813 19.625 229.6875 C18.88894531 229.72166016 18.15289062 229.75582031 17.39453125 229.79101562 C15.59686147 229.87272789 13.79845954 229.93805781 12 230 C11.80438131 232.0825867 11.61880687 234.16611856 11.4375 236.25 C11.33308594 237.41015625 11.22867188 238.5703125 11.12109375 239.765625 C11.01595549 242.57383397 11.25368748 244.35649573 12 247 C12.68102783 246.98952637 13.36205566 246.97905273 14.0637207 246.96826172 C17.14660966 246.92671122 20.22943971 246.90067689 23.3125 246.875 C24.38435547 246.85824219 25.45621094 246.84148437 26.56054688 246.82421875 C27.58857422 246.81777344 28.61660156 246.81132812 29.67578125 246.8046875 C30.62364502 246.79421387 31.57150879 246.78374023 32.5480957 246.77294922 C35 247 35 247 38 249 C38.33 241.41 38.66 233.82 39 226 C34.21416535 225.61413949 34.21416535 225.61413949 31.2109375 227.45703125 Z M57 226 C56.88375362 234.73139464 57.10884819 243.31126982 58 252 C64.49609906 252.07597206 70.99208385 252.12856672 77.48852539 252.16479492 C79.69918092 252.17989525 81.90980643 252.20037709 84.12036133 252.22631836 C87.29515993 252.26264655 90.46956297 252.27971384 93.64453125 252.29296875 C94.63524124 252.30845261 95.62595123 252.32393646 96.64668274 252.33988953 C97.56741074 252.34011612 98.48813873 252.34034271 99.43676758 252.34057617 C100.2472908 252.34723801 101.05781403 252.35389984 101.89289856 252.36076355 C104.51842243 251.91123924 105.37395136 251.06729925 107 249 C109.29668381 242.77316206 110.10806909 235.32420727 108 229 C91.08305365 226.54930313 74.06062281 226.37345731 57 226 Z M48 227 C46.96884721 230.26913624 47.0361016 232.86041348 47.4375 236.25 C47.53933594 237.14203125 47.64117187 238.0340625 47.74609375 238.953125 C47.82988281 239.62859375 47.91367188 240.3040625 48 241 C48.99 241 49.98 241 51 241 C51.22142255 239.04310341 51.4267568 237.08438048 51.625 235.125 C51.74101562 234.03445312 51.85703125 232.94390625 51.9765625 231.8203125 C51.98429688 230.88960937 51.99203125 229.95890625 52 229 C51.34 228.34 50.68 227.68 50 227 C49.34 227 48.68 227 48 227 Z M-76 228 C-75.71890887 229.64767247 -75.42481474 231.29313145 -75.125 232.9375 C-74.96257812 233.85402344 -74.80015625 234.77054688 -74.6328125 235.71484375 C-74.42398438 236.46894531 -74.21515625 237.22304687 -74 238 C-73.34 238.33 -72.68 238.66 -72 239 C-72.28109113 237.35232753 -72.57518526 235.70686855 -72.875 234.0625 C-73.03742188 233.14597656 -73.19984375 232.22945312 -73.3671875 231.28515625 C-73.57601562 230.53105469 -73.78484375 229.77695313 -74 229 C-74.66 228.67 -75.32 228.34 -76 228 Z M0 230 C-0.33 233.3 -0.66 236.6 -1 240 C-0.01 240.33 0.98 240.66 2 241 C2.495 239.1128125 2.495 239.1128125 3 237.1875 C3.185625 236.47980469 3.37125 235.77210938 3.5625 235.04296875 C4.1047007 232.85929991 4.1047007 232.85929991 4 230 C2.68 230 1.36 230 0 230 Z M124 231 C125 233 125 233 125 233 Z M115 234 C115.33 234.66 115.66 235.32 116 236 C116.33 235.34 116.66 234.68 117 234 C116.34 234 115.68 234 115 234 Z M-64 238 C-63.65555119 240.47266765 -63.65555119 240.47266765 -63 243 C-62.34 243.33 -61.68 243.66 -61 244 C-61 242.02 -61 240.04 -61 238 C-61.99 238 -62.98 238 -64 238 Z M-79 240 C-78 242 -78 242 -78 242 Z M114 240 C115 244 115 244 115 244 Z M-17 243 C-16 245 -16 245 -16 245 Z M128 243 C123.80541604 251.80862631 121.20813759 261.33489925 120 271 C124.33256355 267.44110851 125.9262477 263.04320981 128 258 C128.33 257.34 128.66 256.68 129 256 C129.07092842 253.7927077 129.08415025 251.58332548 129.0625 249.375 C129.05347656 248.18648437 129.04445312 246.99796875 129.03515625 245.7734375 C129.02355469 244.85820312 129.01195312 243.94296875 129 243 C128.67 243 128.34 243 128 243 Z M113 244 C114 246 114 246 114 246 Z M119 246 C118.67 248.64 118.34 251.28 118 254 C120.1519437 250.77208445 120.20086443 249.71599191 120 246 C119.67 246 119.34 246 119 246 Z M-54 248 C-53 250 -53 250 -53 250 Z M-79 249 C-80.33265907 258.49519587 -75.66581068 265.09520021 -71 273 C-69.84115915 269.52347745 -70.22063604 268.52995964 -71.3125 265.125 C-71.59480469 264.23683594 -71.87710938 263.34867187 -72.16796875 262.43359375 C-72.77176966 260.66754697 -73.43183168 258.92042079 -74.125 257.1875 C-75.07484739 254.81288152 -75.56867271 252.51607587 -76 250 C-76.99 249.67 -77.98 249.34 -79 249 Z M-95 251 C-95.33 251.66 -95.66 252.32 -96 253 C-95.34 253 -94.68 253 -94 253 C-94.33 252.34 -94.66 251.68 -95 251 Z M-1 251 C-3.31 253.64 -5.62 256.28 -8 259 C-7.525625 259.598125 -7.05125 260.19625 -6.5625 260.8125 C-4.31369498 265.40006225 -4.256466 269.95027297 -4 275 C-1.69 275 0.62 275 3 275 C3 267.41 3 259.82 3 252 C1.68 251.67 0.36 251.34 -1 251 Z M20 252 C19.67 252.66 19.34 253.32 19 254 C19.99 253.67 20.98 253.34 22 253 C21.34 252.67 20.68 252.34 20 252 Z M-62 253 C-61.47458553 260.7498635 -59.44408524 267.6450086 -57 275 C-56.34 274.67 -55.68 274.34 -55 274 C-54.26729063 271.55953428 -54.26729063 271.55953428 -53.8125 268.6875 C-53.63332031 267.72199219 -53.45414063 266.75648438 -53.26953125 265.76171875 C-53.00445057 263.04560218 -52.91647178 261.48790703 -54 259 C-55.83536337 257.23151264 -55.83536337 257.23151264 -58.0625 255.75 C-58.79597656 255.22921875 -59.52945313 254.7084375 -60.28515625 254.171875 C-60.85105469 253.78515625 -61.41695312 253.3984375 -62 253 Z M-25 253 C-24.34 253.66 -23.68 254.32 -23 255 C-23 254.34 -23 253.68 -23 253 C-23.66 253 -24.32 253 -25 253 Z M-69 254 C-68 256 -68 256 -68 256 Z M51 253 C50.01 253.66 49.02 254.32 48 255 C47.58472876 257.12694665 47.58472876 257.12694665 47.70703125 259.5703125 C47.71669922 260.46621094 47.72636719 261.36210937 47.73632812 262.28515625 C47.76146484 263.22230469 47.78660156 264.15945313 47.8125 265.125 C47.82603516 266.06988281 47.83957031 267.01476562 47.85351562 267.98828125 C47.88893694 270.32608779 47.93832729 272.66276237 48 275 C51.04913228 276.01111093 51.04913228 276.01111093 54 275 C54.27850997 272.87470008 54.27850997 272.87470008 54.3125 270.375 C54.72514304 264.85193161 56.45740351 262.17844715 60 258 C59.071875 257.54625 58.14375 257.0925 57.1875 256.625 C54 255 54 255 51 253 Z M106 256 C104.0103005 256.39013716 102.00980131 256.73202649 100 257 C102.97873066 260.07802168 104.91906623 261.63968874 109 263 C110.85776765 259.86501708 111.20140476 257.62528568 111 254 C108.67642489 253.81509993 108.67642489 253.81509993 106 256 Z M117 254 C115.64560332 256.70879335 115.93498549 259.00933268 116 262 C118.1519437 258.77208445 118.20086443 257.71599191 118 254 C117.67 254 117.34 254 117 254 Z M-68 256 C-67 260 -67 260 -67 260 Z M144.6875 258.125 C142.60811185 260.43543128 142.23082357 261.92235239 142 265 C142.66335985 268.0879124 142.66335985 268.0879124 144.93359375 269.1328125 C150.98628192 271.5312256 156.49446623 272.72316878 163 273 C163.93473579 270.02584068 164.17006838 268.45351567 163.0625 265.5 C159.47332807 261.14948856 155.11171465 258.64975835 149.75 257 C146.9835444 256.79949488 146.9835444 256.79949488 144.6875 258.125 Z M-109.5625 262.375 C-112.5461157 265.49371882 -112.5461157 265.49371882 -115 269 C-114.78282648 271.20800528 -114.78282648 271.20800528 -114 273 C-112.33388095 273.042721 -110.66617115 273.04063832 -109 273 C-108.67 272.67 -108.34 272.34 -108 272 C-106.58776052 271.81617544 -105.16948956 271.67765727 -103.75 271.5625 C-100.1810892 271.20959335 -97.26064655 270.5777322 -94 269 C-92.80011955 263.71800407 -92.80011955 263.71800407 -95 259 C-101.67777587 257.59982119 -104.48543814 257.66943047 -109.5625 262.375 Z M-67 260 C-66 263 -66 263 -66 263 Z M60 265 C59.67 266.65 59.34 268.3 59 270 C80.78 270.495 80.78 270.495 103 271 C102.505 268.03 102.505 268.03 102 265 C97.19950451 262.1394075 93.28999641 261.61692487 87.67578125 261.6015625 C86.67275215 261.59725723 86.67275215 261.59725723 85.64945984 261.59286499 C84.24863834 261.59083895 82.84778759 261.59626575 81.44702148 261.60888672 C79.30713924 261.62504047 77.16912333 261.60895153 75.02929688 261.58984375 C73.66145419 261.59182496 72.29361266 261.5956661 70.92578125 261.6015625 C69.07593628 261.60663818 69.07593628 261.60663818 67.1887207 261.61181641 C63.73857653 262.03182477 62.33040534 262.44371118 60 265 Z M-66 264 C-65 267 -65 267 -65 267 Z M-19 264 C-18.50243908 266.75641416 -18.50243908 266.75641416 -17 269 C-14.32941149 269.14115161 -11.67567762 269.04247107 -9 269 C-13.50267719 265.24139769 -13.50267719 265.24139769 -19 264 Z M12 268 C11.49830585 271.16926564 11.49830585 271.16926564 12 274 C16.36174628 275.45391543 20.44771305 274.92152602 25 274.6875 C25.91523438 274.65205078 26.83046875 274.61660156 27.7734375 274.58007812 C28.65257812 274.53689453 29.53171875 274.49371094 30.4375 274.44921875 C31.64212891 274.39254028 31.64212891 274.39254028 32.87109375 274.3347168 C35.29477997 274.10590145 35.29477997 274.10590145 38 272 C38.66685938 269.54327108 38.66685938 269.54327108 38 267 C33.96862626 263.81452888 30.61015056 263.56758323 25.5625 263.5625 C24.28503906 263.54316406 23.00757813 263.52382813 21.69140625 263.50390625 C17.43202088 264.07633159 15.25313405 265.2251215 12 268 Z M-65 268 C-64 271 -64 271 -64 271 Z M128 269 C124.28902767 274.64713181 122.74778478 279.0279982 122.77294922 285.80981445 C122.77265717 286.47378738 122.77236511 287.13776031 122.77206421 287.82185364 C122.7734504 290.00246543 122.78897761 292.18272962 122.8046875 294.36328125 C122.80842017 295.88070997 122.81126594 297.39814112 122.81326294 298.91557312 C122.82087945 302.89896359 122.84051077 306.88220698 122.8626709 310.86553955 C122.88317214 314.934428 122.89227379 319.00334035 122.90234375 323.07226562 C122.92375866 331.0482444 122.95787051 339.02410387 123 347 C124.66611905 347.042721 126.33382885 347.04063832 128 347 C129.68503699 345.31496301 129.11965983 343.23740116 129.12442017 340.98905945 C129.12082489 340.27264786 129.11722961 339.55623627 129.11352539 338.81811523 C129.11367142 338.06694427 129.11381744 337.31577332 129.1139679 336.5418396 C129.11326863 334.04739541 129.10547564 331.55302497 129.09765625 329.05859375 C129.09579212 327.33366436 129.09436819 325.60873443 129.09336853 323.88380432 C129.08954297 319.33487497 129.07971238 314.78597733 129.06866455 310.23706055 C129.05845124 305.59879994 129.05387108 300.96053423 129.04882812 296.32226562 C129.03809014 287.21482978 129.02101327 278.10741752 129 269 C128.67 269 128.34 269 128 269 Z M-79 270 C-79.17054587 277.76959012 -79.32995636 285.53935566 -79.48217773 293.30932617 C-79.53428174 295.94418542 -79.5903176 298.57887459 -79.64819336 301.21362305 C-79.97553227 316.19435939 -80.12452964 331.05043968 -79 346 C-77.35 346.33 -75.7 346.66 -74 347 C-73.95365576 338.20300166 -73.91812019 329.40604536 -73.89637566 320.60895157 C-73.88593928 316.5240879 -73.87178276 312.43930778 -73.84912109 308.35449219 C-73.82738749 304.41228158 -73.81543027 300.47015133 -73.81024551 296.52788544 C-73.80655069 295.02399175 -73.79933563 293.52010245 -73.78853989 292.01624298 C-73.77401794 289.90949507 -73.77202233 287.80307899 -73.77294922 285.69628906 C-73.768508 284.49715881 -73.76406677 283.29802856 -73.75949097 282.06256104 C-73.99414322 279.07457826 -74.47907498 277.52501592 -76 275 C-76.67966676 273.33859237 -77.34938905 271.67299959 -78 270 C-78.33 270 -78.66 270 -79 270 Z M-64 272 C-63 275 -63 275 -63 275 Z M-47 275 C-47 276.32 -47 277.64 -47 279 C-39.52906777 279.29883729 -32.36955011 278.15925507 -25 277 C-26.77601843 274.80697743 -26.77601843 274.80697743 -29.06298828 274.77294922 C-29.89040527 274.78342285 -30.71782227 274.79389648 -31.5703125 274.8046875 C-32.46621094 274.81113281 -33.36210938 274.81757813 -34.28515625 274.82421875 C-35.69087891 274.84935547 -35.69087891 274.84935547 -37.125 274.875 C-38.06988281 274.88402344 -39.01476562 274.89304687 -39.98828125 274.90234375 C-42.32577292 274.92595478 -44.66276123 274.95888484 -47 275 Z M71 276 C71 276.33 71 276.66 71 277 C73.70784994 277.33772739 76.41616996 277.67030687 79.125 278 C79.88554687 278.09539062 80.64609375 278.19078125 81.4296875 278.2890625 C85.64909952 278.79830188 89.74004344 279.10888068 94 279 C94.33 278.01 94.66 277.02 95 276 C87.06695918 274.58968163 78.91253 274.2891827 71 276 Z M111 278 C112 280 112 280 112 280 Z M0.10107422 282.53271484 C-0.26228027 283.34691895 -0.62563477 284.16112305 -1 285 C0.23339111 284.99476318 1.46678223 284.98952637 2.73754883 284.98413086 C7.41006718 284.96572958 12.08258251 284.9544427 16.75512695 284.94506836 C18.75936424 284.94010698 20.76359805 284.93333575 22.76782227 284.92456055 C25.68507374 284.91212804 28.60225539 284.90543379 31.51953125 284.90234375 C32.47876495 284.90076263 33.43799866 284.89918152 34.42630005 284.89755249 C41.72433456 284.91829277 48.97903037 285.25224329 56.24824524 285.91111755 C58.68135297 286.12828045 58.68135297 286.12828045 62 286 C62.66 285.01 63.32 284.02 64 283 C55.01788683 280.59407683 46.31765535 279.44323325 37 280 C36.67 280.33 36.34 280.66 36 281 C33.5 281.125 33.5 281.125 31 281 C30.67 280.67 30.34 280.34 30 280 C25.38264444 279.66218643 20.75312228 279.6749601 16.125 279.625 C14.81917969 279.58761719 13.51335937 279.55023438 12.16796875 279.51171875 C10.91886719 279.50011719 9.66976562 279.48851562 8.3828125 279.4765625 C7.23184082 279.45674316 6.08086914 279.43692383 4.89501953 279.41650391 C1.77807532 279.71042962 1.77807532 279.71042962 0.10107422 282.53271484 Z M-39.75 283.4375 C-41.12865234 283.63956055 -41.12865234 283.63956055 -42.53515625 283.84570312 C-45.02653473 284.21526361 -47.5150857 284.58920003 -50 285 C-50.86141602 285.13929932 -51.72283203 285.27859863 -52.61035156 285.42211914 C-55.24315239 285.91395724 -55.24315239 285.91395724 -58 288 C-55.25180132 289.73872775 -55.25180132 289.73872775 -52.13671875 289.5546875 C-51.07904297 289.28011719 -51.07904297 289.28011719 -50 289 C-48.52080953 288.98093125 -47.04070193 289.0051667 -45.5625 289.0625 C-37.14290226 289.14981435 -28.92780075 287.82457572 -21 285 C-20.505 285.495 -20.505 285.495 -20 286 C-14.84802914 286.17765417 -10.07806929 285.84634488 -5 285 C-6.85814898 282.69828666 -6.85814898 282.69828666 -9.78515625 282.83984375 C-10.86667969 282.87207031 -11.94820312 282.90429688 -13.0625 282.9375 C-15.04103654 282.9916098 -17.02082886 283.02040383 -19 283 C-19.495 282.505 -19.495 282.505 -20 282 C-26.73545955 281.73626213 -33.10064062 282.41780509 -39.75 283.4375 Z M68 283 C68.33 283.99 68.66 284.98 69 286 C71.74630619 287.3731531 74.27179939 287.4382661 77.328125 287.75390625 C78.60300781 287.88603516 79.87789062 288.01816406 81.19140625 288.15429688 C81.8580127 288.22124756 82.52461914 288.28819824 83.21142578 288.35717773 C85.22876616 288.56036136 87.24523747 288.77090113 89.26171875 288.98242188 C97.61815636 290.00771702 97.61815636 290.00771702 106 290 C106.66 289.01 107.32 288.02 108 287 C94.8371316 284.18134003 81.46608864 282.38893379 68 283 Z M12 290 C10.63517998 296.6460801 10.82117559 303.35571695 12 310 C14.55723229 311.27861615 16.36737102 311.11336609 19.2265625 311.09765625 C20.7734375 311.09282227 20.7734375 311.09282227 22.3515625 311.08789062 C23.43179688 311.07951172 24.51203125 311.07113281 25.625 311.0625 C26.71296875 311.05798828 27.8009375 311.05347656 28.921875 311.04882812 C31.61463789 311.03701776 34.30729188 311.02054778 37 311 C38.75732102 306.90205101 39.24416379 303.85659086 39.1875 299.375 C39.18105469 298.24835938 39.17460937 297.12171875 39.16796875 295.9609375 C39.1264556 292.94271774 39.1264556 292.94271774 38 290 C36.65808594 290.01740234 36.65808594 290.01740234 35.2890625 290.03515625 C28.74849715 290.08396644 22.37798688 289.99108764 15.890625 289.12109375 C13.91049933 288.83497132 13.91049933 288.83497132 12 290 Z M117 292 C114.58878141 293.95633975 114.58878141 293.95633975 114.875 297.625 C114.91625 298.73875 114.9575 299.8525 115 301 C115.99 301 116.98 301 118 301 C118 298.03 118 295.06 118 292 C117.67 292 117.34 292 117 292 Z M-67 294 C-69.67363089 296.67363089 -69.23828988 298.68957449 -69.25224304 302.3237915 C-69.24505753 303.19147156 -69.23787201 304.05915161 -69.23046875 304.953125 C-69.23001053 305.84610291 -69.22955231 306.73908081 -69.2290802 307.65911865 C-69.22605519 309.55221888 -69.21816149 311.44531655 -69.20581055 313.33837891 C-69.18766115 316.22437455 -69.18530016 319.11004724 -69.18554688 321.99609375 C-69.18062734 323.83594025 -69.17479713 325.67578459 -69.16796875 327.515625 C-69.16685593 328.37520813 -69.1657431 329.23479126 -69.16459656 330.12042236 C-69.1300865 334.52321989 -68.88142585 338.66540703 -68 343 C-66.68 343.33 -65.36 343.66 -64 344 C-64.06058594 343.24203125 -64.12117188 342.4840625 -64.18359375 341.703125 C-65.25089339 327.18784989 -66 312.55528226 -66 298 C-66.3062434 296.66018514 -66.63451555 295.32488113 -67 294 Z M-55 295 C-58.16328572 298.16328572 -57.98910099 302.0587655 -58.01318359 306.34814453 C-57.94728354 308.92327704 -57.82689706 311.49033783 -57.6875 314.0625 C-57.65205078 314.93455078 -57.61660156 315.80660156 -57.58007812 316.70507812 C-57.33847026 321.46871975 -56.80162557 325.52167359 -55 330 C-52.525 329.505 -52.525 329.505 -50 329 C-48.86866715 325.48414105 -49.02714873 322.47205144 -49.3046875 318.80859375 C-49.39363281 317.61685547 -49.48257813 316.42511719 -49.57421875 315.19726562 C-49.72310547 313.33618164 -49.72310547 313.33618164 -49.875 311.4375 C-49.96652344 310.19291016 -50.05804688 308.94832031 -50.15234375 307.66601562 C-50.5485297 301.23322554 -50.5485297 301.23322554 -52 295 C-52.99 295 -53.98 295 -55 295 Z M-2.72021484 296.68310547 C-4.19525129 299.35347859 -4.40810159 301.03409898 -4.4765625 304.0703125 C-4.5075 305.05 -4.5384375 306.0296875 -4.5703125 307.0390625 C-4.58835937 308.05742187 -4.60640625 309.07578125 -4.625 310.125 C-4.67688287 312.12767879 -4.73154873 314.13028751 -4.7890625 316.1328125 C-4.81645508 317.10637695 -4.84384766 318.07994141 -4.87207031 319.08300781 C-5.06181049 323.40937351 -5.50056474 327.69963705 -6 332 C-2.535 333.98 -2.535 333.98 1 336 C3.36688478 331.20656108 3.65675521 326.36780636 4.125 321.125 C4.25455078 319.81595703 4.25455078 319.81595703 4.38671875 318.48046875 C5.00860964 311.9160649 5.59246493 305.53188879 4 299.0625 C3.814375 298.29035156 3.62875 297.51820313 3.4375 296.72265625 C3.293125 296.15417969 3.14875 295.58570313 3 295 C-0.92459266 294.53376333 -0.92459266 294.53376333 -2.72021484 296.68310547 Z M102 295 C101.19648502 300.83887552 100.75510483 306.61369234 100.5 312.5 C100.24489517 318.38630766 99.80351498 324.16112448 99 330 C100.84725052 330.69159401 100.84725052 330.69159401 103 331 C106.05397547 329.38158515 106.05397547 329.38158515 106.6953125 327.1875 C108.74727148 316.74116339 109.13802442 306.64321639 109 296 C106.69 295.67 104.38 295.34 102 295 Z M49 295 C46.85066647 295.78574979 46.85066647 295.78574979 46.38549805 297.73193359 C45.60559586 302.32046515 45.81530655 306.9829658 45.8125 311.625 C45.80025391 312.66785156 45.78800781 313.71070313 45.77539062 314.78515625 C45.7629464 321.43037087 46.41272077 327.54476471 48 334 C50.97065509 333.65772428 50.97065509 333.65772428 54 333 C56.23599818 328.52800365 55.03741079 321.8746887 54.92285156 316.91479492 C54.89099063 315.3485698 54.86980431 313.7820906 54.859375 312.21557617 C54.84415371 309.95640427 54.79679609 307.69992881 54.7421875 305.44140625 C54.74298309 304.7413295 54.74377869 304.04125275 54.74459839 303.31996155 C54.72098775 301.09480008 54.72098775 301.09480008 54 298 C51.71896998 295.86325931 51.71896998 295.86325931 49 295 Z M-45 298 C-45 300.31 -45 302.62 -45 305 C-39.59919859 305.85275812 -35.44019007 305.80595408 -30 305 C-27.99759451 305.31856451 -25.99788438 305.65421232 -24 306 C-22.12717417 306.12285301 -20.25125533 306.20272036 -18.375 306.25 C-17.45460938 306.27578125 -16.53421875 306.3015625 -15.5859375 306.328125 C-12.52507348 305.93973742 -11.16604257 305.17621178 -9 303 C-9 302.01 -9 301.02 -9 300 C-12.45649378 297.69567081 -13.97178386 297.70374782 -18.05859375 297.5859375 C-19.24904297 297.54726563 -20.43949219 297.50859375 -21.66601562 297.46875 C-22.91060547 297.4378125 -24.15519531 297.406875 -25.4375 297.375 C-26.67822266 297.33632813 -27.91894531 297.29765625 -29.19726562 297.2578125 C-37.33346528 296.45938304 -37.33346528 296.45938304 -45 298 Z M60 298 C60 300.64 60 303.28 60 306 C71.88 306 83.76 306 96 306 C96 303.36 96 300.72 96 298 C84.12 298 72.24 298 60 298 Z M115 302 C115 302.74161377 115 303.48322754 115 304.24731445 C115 330.375 115 330.375 114.5 336.1875 C114.4071875 337.27417969 114.314375 338.36085938 114.21875 339.48046875 C114.1465625 340.31191406 114.074375 341.14335937 114 342 C115.32 342.33 116.64 342.66 118 343 C118 329.47 118 315.94 118 302 C117.01 302 116.02 302 115 302 Z M-45 311 C-45 313.31 -45 315.62 -45 318 C-33.45 318 -21.9 318 -10 318 C-10 315.69 -10 313.38 -10 311 C-14.50213622 310.83226814 -19.00444973 310.67172123 -23.50708008 310.51782227 C-25.03872569 310.46445878 -26.57030427 310.40913386 -28.10180664 310.35180664 C-30.30340117 310.26973748 -32.50514051 310.19472933 -34.70703125 310.12109375 C-35.39150833 310.09405869 -36.07598541 310.06702362 -36.78120422 310.03916931 C-39.8469855 309.94296818 -42.05919382 310.01973127 -45 311 Z M60 311 C60 313.31 60 315.62 60 318 C67.89186396 318.71052151 75.76570465 319.14093297 83.6875 319.25 C84.85418213 319.2819043 84.85418213 319.2819043 86.04443359 319.31445312 C90.28099371 319.37497616 90.28099371 319.37497616 94.01953125 317.609375 C95.17342523 316.02942016 95.17342523 316.02942016 95 314 C94.34 313.34 93.68 312.68 93 312 C93 311.67 93 311.34 93 311 C88.99745544 310.90818866 88.99745544 310.90818866 85 311 C84.67 311.33 84.34 311.66 84 312 C81.83519203 312.0989294 79.66706215 312.129711 77.5 312.125 C76.3140625 312.12757813 75.128125 312.13015625 73.90625 312.1328125 C71 312 71 312 70 311 C68.31391034 310.92794489 66.62499341 310.91613932 64.9375 310.9375 C64.01839844 310.94652344 63.09929687 310.95554687 62.15234375 310.96484375 C61.44207031 310.97644531 60.73179687 310.98804688 60 311 Z M10 314 C9.46594904 317.89414022 8.9500889 321.79048136 8.4375 325.6875 C8.28603516 326.79029297 8.13457031 327.89308594 7.97851562 329.02929688 C7.83994141 330.09599609 7.70136719 331.16269531 7.55859375 332.26171875 C7.36221313 333.73064575 7.36221313 333.73064575 7.16186523 335.22924805 C6.99716986 338.04844542 7.26308694 340.28152262 8 343 C9.14588101 344.37317088 9.14588101 344.37317088 12.23461914 344.11352539 C13.66814126 344.11336631 15.10166912 344.10767407 16.53515625 344.09765625 C17.28840683 344.0962413 18.04165741 344.09482635 18.81773376 344.09336853 C21.2326956 344.08775376 23.64756601 344.07519883 26.0625 344.0625 C27.69596221 344.0574869 29.32942586 344.05292366 30.96289062 344.04882812 C34.97529585 344.03777954 38.98763241 344.02050506 43 344 C42.8563501 343.33033203 42.7127002 342.66066406 42.56469727 341.97070312 C42.37963623 341.08318359 42.1945752 340.19566406 42.00390625 339.28125 C41.81900635 338.40533203 41.63410645 337.52941406 41.44360352 336.62695312 C40.91122312 333.47427668 40.91064488 330.5008008 40.99609375 327.31640625 C41.00305898 323.18602384 40.47910721 319.09807773 40 315 C32.71626171 315.42104811 32.71626171 315.42104811 25.6875 317.1875 C22.10271326 318.27127274 20.42691357 317.39874023 17 316 C14.67061346 315.31967123 12.33765733 314.65134254 10 314 Z M-44 324 C-43.34 325.98 -42.68 327.96 -42 330 C-38.64264863 331.11911712 -36.11794614 331.11365586 -32.58203125 331.09765625 C-31.32841797 331.09443359 -30.07480469 331.09121094 -28.78320312 331.08789062 C-27.47287109 331.07951172 -26.16253906 331.07113281 -24.8125 331.0625 C-23.47721519 331.05748317 -22.14192859 331.05292059 -20.80664062 331.04882812 C-17.53771527 331.03702695 -14.26888009 331.02056297 -11 331 C-10.67 328.69 -10.34 326.38 -10 324 C-21.22 324 -32.44 324 -44 324 Z M60 324 C60.33 326.31 60.66 328.62 61 331 C65.37821909 331.0740719 69.75610782 331.12856375 74.13476562 331.16479492 C75.62473909 331.179896 77.11466801 331.20037858 78.60449219 331.22631836 C80.7442523 331.26264584 82.88342566 331.27971221 85.0234375 331.29296875 C86.31169434 331.3086792 87.59995117 331.32438965 88.92724609 331.34057617 C89.94125488 331.22818604 90.95526367 331.1157959 92 331 C94.36980013 328.04622502 94.36980013 328.04622502 94 324 C82.78 324 71.56 324 60 324 Z M-88 326 C-88.226875 326.94875 -88.45375 327.8975 -88.6875 328.875 C-90 332 -90 332 -92.625 333.375 C-93.800625 333.684375 -93.800625 333.684375 -95 334 C-94.91439594 339.97794123 -94.91439594 339.97794123 -92.25 345.0625 C-89.6705575 346.13726771 -87.76733963 346.06872532 -85 346 C-84.94574774 343.60385874 -84.90620973 341.20896147 -84.875 338.8125 C-84.85824219 338.13896484 -84.84148437 337.46542969 -84.82421875 336.77148438 C-84.78461326 332.71192193 -85.19979998 329.65001185 -87 326 C-87.33 326 -87.66 326 -88 326 Z M-59 337 C-58.50523349 342.64033825 -57.62152175 346.95861201 -55 352 C-54.01 352.66 -53.02 353.32 -52 354 C-51.01 353.01 -50.02 352.02 -49 351 C-50.39759905 347.45481116 -50.39759905 347.45481116 -52 344 C-52.039992 342.00039988 -52.04346799 339.99952758 -52 338 C-55.26085939 336.02948211 -55.26085939 336.02948211 -59 337 Z M-47 336 C-46.69147815 337.958964 -46.3780582 339.91715713 -46.0625 341.875 C-45.88847656 342.96554687 -45.71445313 344.05609375 -45.53515625 345.1796875 C-45.14448841 347.93821546 -45.14448841 347.93821546 -44 350 C-41.1836191 350.47167268 -41.1836191 350.47167268 -37.77734375 350.6328125 C-36.51728516 350.71660156 -35.25722656 350.80039062 -33.95898438 350.88671875 C-32.61850178 350.96635138 -31.27800679 351.04577574 -29.9375 351.125 C-28.5930424 351.21136357 -27.24864005 351.29859195 -25.90429688 351.38671875 C-22.60340407 351.59967958 -19.30175905 351.80092024 -16 352 C-14.35 347.38 -12.7 342.76 -11 338 C-12.92516455 335.63640567 -12.92516455 335.63640567 -16.34814453 335.77294922 C-17.77640633 335.77326625 -19.20469212 335.78458639 -20.6328125 335.8046875 C-21.38464813 335.8075174 -22.13648376 335.81034729 -22.91110229 335.81326294 C-25.31589578 335.82447126 -27.72031881 335.84957648 -30.125 335.875 C-31.75390088 335.88502898 -33.38280758 335.89415497 -35.01171875 335.90234375 C-39.00795556 335.92441265 -43.00391494 335.95894649 -47 336 Z M85.828125 336.21875 C85.1457074 336.24094604 84.46328979 336.26314209 83.76019287 336.28601074 C81.59010823 336.35673317 79.42005432 336.42835407 77.25 336.5 C75.77474152 336.54823645 74.29948113 336.59641419 72.82421875 336.64453125 C69.21612333 336.7623407 65.60805491 336.88095572 62 337 C62.08868107 338.37608552 62.19685939 339.75091742 62.3125 341.125 C62.37050781 341.89070313 62.42851562 342.65640625 62.48828125 343.4453125 C63.02538929 346.7078629 63.02538929 346.7078629 66 352 C74.91 351.67 83.82 351.34 93 351 C95.10935397 345.37505608 96.40656104 341.69701401 97 336 C93.2688081 336 89.55709225 336.09648878 85.828125 336.21875 Z M102 337 C101.79503906 337.81984375 101.59007812 338.6396875 101.37890625 339.484375 C100.25260417 343.98958333 99.12630208 348.49479167 98 353 C100.475 353.99 100.475 353.99 103 355 C106.72289984 350.769432 107.8786622 346.18408038 108.1875 340.625 C108.2933543 338.07504412 108.2933543 338.07504412 107 337 C105.33382885 336.95936168 103.66611905 336.957279 102 337 Z M-6 339 C-8.23891142 344.45126259 -9.47606294 349.13190493 -10 355 C-8.515 355.99 -8.515 355.99 -7 357 C-1.58792868 350.79174161 -1.58792868 350.79174161 0 343 C-1.68832016 340.5608859 -1.68832016 340.5608859 -4 339 C-4.66 339 -5.32 339 -6 339 Z M51 343 C49.80976813 345.72736549 49.90953473 346.76585458 50.99609375 349.578125 C51.47175781 350.45984375 51.94742188 351.3415625 52.4375 352.25 C53.14712891 353.58804687 53.14712891 353.58804687 53.87109375 354.953125 C54.24363281 355.62859375 54.61617187 356.3040625 55 357 C55.99 357 56.98 357 58 357 C59.70532323 355.05990478 59.70532323 355.05990478 61 353 C60.360625 352.154375 59.72125 351.30875 59.0625 350.4375 C56.8033727 347.09271435 56.32208241 344.02603008 56 340 C53.8979185 340 52.49096206 341.6954082 51 343 Z M4 350 C1.72496329 352.55110001 1.72496329 352.55110001 0.1875 355.8125 C-0.37582031 356.87082031 -0.93914062 357.92914063 -1.51953125 359.01953125 C-2.25236328 360.49486328 -2.25236328 360.49486328 -3 362 C-3.66636883 363.33348221 -4.33297445 364.66684617 -5 366 C2.39727248 366.06944095 9.79447494 366.12278091 17.19200706 366.15543652 C20.62681954 366.17110785 24.06140941 366.19237214 27.49609375 366.22631836 C31.44268144 366.2650808 35.38917828 366.27969712 39.3359375 366.29296875 C41.19066177 366.31619453 41.19066177 366.31619453 43.08285522 366.33988953 C44.22388702 366.34011612 45.36491882 366.34034271 46.54052734 366.34057617 C47.548685 366.34723801 48.55684265 366.35389984 49.59555054 366.36076355 C50.38901886 366.24171158 51.18248718 366.12265961 52 366 C52.66 365.01 53.32 364.02 54 363 C53.236875 361.989375 52.47375 360.97875 51.6875 359.9375 C49.1261948 356.54550122 47.64256506 352.90680226 46 349 C41.1436398 348.97515439 36.28731716 348.95707135 31.4309082 348.94506836 C29.78116206 348.94006081 28.1314203 348.93325284 26.48168945 348.92456055 C24.10106315 348.91233746 21.72049587 348.90673578 19.33984375 348.90234375 C18.24566383 348.89460182 18.24566383 348.89460182 17.12937927 348.88670349 C12.67337198 348.88622282 8.38007031 349.07795226 4 350 Z M-95 352 C-95.10844911 365.77396386 -94.84389874 379.49141583 -94.1875 393.25 C-94.14298706 394.18710815 -94.09847412 395.12421631 -94.0526123 396.08972168 C-92.40836573 429.91401718 -89.54889465 473.29427882 -63.83203125 498.50390625 C-61.96576508 500.20870413 -61.96576508 500.20870413 -59 501 C-58.82158585 492.78483958 -59.41794913 484.70185867 -60.171875 476.53100586 C-60.37549144 474.3071325 -60.56699306 472.08242553 -60.7578125 469.85742188 C-60.88729017 468.42180891 -61.01747405 466.98625943 -61.1484375 465.55078125 C-61.32125244 463.62745972 -61.32125244 463.62745972 -61.49755859 461.6652832 C-61.91218504 457.97472134 -61.91218504 457.97472134 -63.04541016 454.41088867 C-63.99400705 451.0214137 -64.20559321 448.37632731 -64.125 444.875 C-64.10179687 443.19664062 -64.10179687 443.19664062 -64.078125 441.484375 C-64.02604167 439.16145833 -63.97395833 436.83854167 -63.921875 434.515625 C-63.83924627 428.53881344 -64.03565896 423.64748049 -66 418 C-66 417.01 -66 416.02 -66 415 C-67.64333504 413.96210419 -69.31243867 412.96432076 -71 412 C-71.66 411.01 -72.32 410.02 -73 409 C-73.61875 408.278125 -74.2375 407.55625 -74.875 406.8125 C-80.34012459 399.57924687 -81.7689959 393.09694132 -82.6875 384.25 C-82.91876491 382.21333555 -83.15176769 380.1768675 -83.38671875 378.140625 C-83.48170654 377.24891602 -83.57669434 376.35720703 -83.67456055 375.43847656 C-83.94441292 373.04431326 -83.94441292 373.04431326 -84.53442383 370.93334961 C-85.03545957 368.85275072 -85.09869521 367.06255519 -85.0625 364.92578125 C-85.05476563 364.17619141 -85.04703125 363.42660156 -85.0390625 362.65429688 C-85.02617188 361.88150391 -85.01328125 361.10871094 -85 360.3125 C-84.9543669 357.535726 -84.95276414 354.77805879 -85 352 C-86.16983444 350.60318432 -86.16983444 350.60318432 -89.4375 350.875 C-92.84105584 350.7473719 -92.84105584 350.7473719 -95 352 Z M143 349 C142.67 349.33 142.34 349.66 142 350 C139.34536879 350.45459858 136.67810862 350.70243238 134 351 C133.98541748 351.67877197 133.97083496 352.35754395 133.95581055 353.05688477 C133.64622874 365.98165181 133.30604592 378.44018919 130 391 C129.64228516 392.44246094 129.64228516 392.44246094 129.27734375 393.9140625 C127.05489223 402.14806323 122.55364424 409.89479901 115.37963867 414.78686523 C112.75143599 416.80808997 112.75143599 416.80808997 112.37231445 419.90649414 C112.3693335 421.02145264 112.36635254 422.13641113 112.36328125 423.28515625 C112.34458984 424.529021 112.32589844 425.77288574 112.30664062 427.05444336 C112.30768799 427.70895477 112.30873535 428.36346619 112.30981445 429.03781128 C112.31433403 432.44521465 112.24004428 435.85113394 112.17578125 439.2578125 C112.16523712 439.93035568 112.15469299 440.60289886 112.14382935 441.29582214 C112.04594819 446.71949455 111.64463304 452.05432882 111 457.4375 C110.91226318 458.18418945 110.82452637 458.93087891 110.73413086 459.70019531 C110.56617061 461.12347933 110.3973479 462.54666191 110.22753906 463.96972656 C107.87421309 481.62815464 107.87421309 481.62815464 110 499 C113.0745356 498.2236068 113.0745356 498.2236068 115 496 C115.78503906 495.28457031 116.57007813 494.56914062 117.37890625 493.83203125 C120.27065236 490.70756638 122.11534951 487.4874014 123.9375 483.6875 C124.27740967 482.99035889 124.61731934 482.29321777 124.9675293 481.57495117 C130.46605141 470.07076797 134.47664912 458.51098518 137 446 C137.54137074 443.54160148 138.08303992 441.08326867 138.625 438.625 C140.74254832 430.82136374 140.74254832 430.82136374 140.4375 423 C140 421 140 421 140.93310547 417.83032227 C141.9945654 414.01951108 142.39953212 410.65625682 142.6328125 406.71484375 C142.67446533 406.02832733 142.71611816 405.34181091 142.7590332 404.63449097 C142.89048579 402.40258251 143.008647 400.17024302 143.125 397.9375 C143.16735779 397.17464691 143.20971558 396.41179382 143.25335693 395.62582397 C144.11033807 380.07707131 144.22475932 364.5689053 144 349 C143.67 349 143.34 349 143 349 Z M-50 358 C-51.165429 364.68407809 -50.19564121 371.99685213 -47 378 C-43.06428123 381.7042059 -38.17572906 381.72885241 -33 382 C-32.07058594 382.06445312 -31.14117187 382.12890625 -30.18359375 382.1953125 C-25.75906903 382.37590535 -22.63378884 382.26030613 -18.5 380.5625 C-13.99608125 375.94598328 -12.8917269 370.44417349 -12.5 364.125 C-12.64339455 361.07653806 -12.70933498 360.32073382 -14.8125 358 C-22.45831397 355.60131326 -30.55351668 355.89736613 -38.5 355.8125 C-39.28979248 355.79936768 -40.07958496 355.78623535 -40.89331055 355.77270508 C-44.78845492 355.76724204 -46.68537689 355.79025126 -50 358 Z M-59 357 C-58 359 -58 359 -58 359 Z M79.48828125 356.1640625 C77.86711428 356.23266604 76.24601927 356.30299074 74.625 356.375 C73.44707886 356.42092285 73.44707886 356.42092285 72.24536133 356.46777344 C66.78185424 356.66255655 66.78185424 356.66255655 62 359 C60.30899501 364.7977314 61.18451697 370.29281666 63 376 C65.20272809 379.48173149 66.09555384 380.69851795 70 382 C72.82292437 382.09685109 75.61533362 382.13921746 78.4375 382.125 C79.5831543 382.13080078 79.5831543 382.13080078 80.75195312 382.13671875 C81.86280273 382.13478516 81.86280273 382.13478516 82.99609375 382.1328125 C84.00434204 382.13112061 84.00434204 382.13112061 85.03295898 382.12939453 C87.15623922 381.98972238 88.98392864 381.68605634 91 381 C91.33 380.34 91.66 379.68 92 379 C92.61875 378.79375 93.2375 378.5875 93.875 378.375 C97.31091703 376.15175957 98.11859876 372.80891252 99 369 C99.4670385 365.5632058 99.63563859 362.42123123 99 359 C96.81990087 356.52922098 95.30951032 356.13281038 92.07421875 355.8046875 C87.87664498 355.70319176 83.68314025 356.01291206 79.48828125 356.1640625 Z M107 358 C104.94074319 361.08888522 104.7609626 361.70935927 104.875 365.1875 C104.91625 366.445625 104.9575 367.70375 105 369 C107.12046792 365.46588679 107.53199289 362.05606165 108 358 C107.67 358 107.34 358 107 358 Z M-58 361 C-57.67 362.98 -57.34 364.96 -57 367 C-56.67 367 -56.34 367 -56 367 C-56 365.35 -56 363.7 -56 362 C-56.66 361.67 -57.32 361.34 -58 361 Z M-6 372 C-7.2553776 373.97845076 -7.2553776 373.97845076 -8 376 C5.86101515 377.05128007 19.6672024 377.11869617 33.5625 377.0625 C35.74934792 377.05747053 37.93619698 377.0529102 40.12304688 377.04882812 C45.41538979 377.03794743 50.70768939 377.02132612 56 377 C54.4010461 373.87245461 54.4010461 373.87245461 52.08984375 373.5234375 C51.37957031 373.47445313 50.66929687 373.42546875 49.9375 373.375 C46 373 46 373 45 372 C43.65546603 371.87815954 42.30483805 371.82233337 40.95507812 371.79467773 C40.09748901 371.77473251 39.2398999 371.75478729 38.35632324 371.73423767 C37.42404907 371.71752518 36.4917749 371.70081268 35.53125 371.68359375 C34.58060669 371.66281265 33.62996338 371.64203156 32.6505127 371.62062073 C29.60041818 371.55501973 26.55023431 371.49620443 23.5 371.4375 C21.44139692 371.3943227 19.38280295 371.35070868 17.32421875 371.30664062 C5.59965847 370.76488337 5.59965847 370.76488337 -6 372 Z M-11 382 C-11.67482422 383.38251953 -11.67482422 383.38251953 -12.36328125 384.79296875 C-14.24373583 388.47758261 -15.9997327 391.13307791 -19 394 C-21.86769712 394.61114857 -24.13061173 394.89508635 -27 395 C-28.50163121 395.17395387 -30.00181981 395.36097488 -31.5 395.5625 C-32.655 395.706875 -33.81 395.85125 -35 396 C-35 396.33 -35 396.66 -35 397 C-21.26865378 397.75665943 -7.59102078 398.1510624 6.16015625 398.1328125 C8.01037102 398.13348968 9.8605857 398.13446311 11.71080017 398.13571167 C15.55012883 398.13716885 19.3894339 398.13509871 23.22875977 398.13037109 C28.08799395 398.12467099 32.94717289 398.12796743 37.80640507 398.13394356 C41.61511126 398.13759987 45.42380489 398.13638769 49.23251152 398.13381577 C51.02181442 398.13316064 52.81111855 398.13392379 54.60042 398.13629532 C64.03009282 398.14606006 73.45315914 398.03459898 82.87670898 397.67919922 C84.11633565 397.64625354 84.11633565 397.64625354 85.38100529 397.61264229 C90.25055498 397.39496329 93.78932488 396.70195094 98 394 C98.96044102 391.92309422 98.96044102 391.92309422 99 390 C98.278125 390.14566406 97.55625 390.29132813 96.8125 390.44140625 C95.04365548 390.79271843 93.27300592 391.13517546 91.5 391.46484375 C86.28863562 392.42721167 86.28863562 392.42721167 81.3125 394.1875 C76.8103109 395.76935022 72.75991297 394.24893701 68.375 392.8125 C63.84222089 390.37822974 61.78167092 387.40114419 58.73046875 383.2890625 C56.12437225 381.34772651 54.2178726 381.96156428 51.0625 382.375 C45.36743986 383.09482173 45.36743986 383.09482173 43.14483643 382.52125549 C40.62245037 381.90824484 38.36842087 381.88017374 35.77246094 381.88647461 C34.73168396 381.88655014 33.69090698 381.88662567 32.61859131 381.88670349 C31.50179993 381.89186478 30.38500854 381.89702606 29.234375 381.90234375 C28.08584045 381.9037587 26.93730591 381.90517365 25.75396729 381.90663147 C22.08595169 381.91222857 18.41799715 381.92478056 14.75 381.9375 C12.26302171 381.94251537 9.77604247 381.94707822 7.2890625 381.95117188 C1.1926875 381.96219705 -4.90365189 381.97893231 -11 382 Z M-52 387 C-51.67 388.65 -51.34 390.3 -51 392 C-50.34 391.67 -49.68 391.34 -49 391 C-49.66 389.68 -50.32 388.36 -51 387 C-51.33 387 -51.66 387 -52 387 Z M83 387 C83 387.33 83 387.66 83 388 C84.98 388 86.96 388 89 388 C89 387.67 89 387.34 89 387 C87.02 387 85.04 387 83 387 Z M-46 394 C-46 394.66 -46 395.32 -46 396 C-45.01 396 -44.02 396 -43 396 C-43.33 395.34 -43.66 394.68 -44 394 C-44.66 394 -45.32 394 -46 394 Z M-59 422 C-59.19392201 427.52677733 -58.7479503 431.75614911 -57 437 C-55.35 436.67 -53.7 436.34 -52 436 C-51.01 432.37 -50.02 428.74 -49 425 C-52.72965139 422.96564469 -54.66905042 422 -59 422 Z M-98 423 C-97 427 -97 427 -97 427 Z M103 424 C101.68 424 100.36 424 99 424 C98.67 424.99 98.34 425.98 98 427 C98.33 427.66 98.66 428.32 99 429 C99.06950541 430.54023996 99.08452357 432.08334988 99.0625 433.625 C99.05347656 434.44226563 99.04445312 435.25953125 99.03515625 436.1015625 C99.02355469 436.72804688 99.01195312 437.35453125 99 438 C103.47883696 437.55296014 103.47883696 437.55296014 107 435 C107.24360073 431.87185486 107.24360073 431.87185486 107.125 428.375 C107.10695312 427.18648438 107.08890625 425.99796875 107.0703125 424.7734375 C107.04710937 423.85820312 107.02390625 422.94296875 107 422 C105.53774984 421.90754997 105.53774984 421.90754997 103 424 Z M-41 427 C-41.33 430.96 -41.66 434.92 -42 439 C-39.22221803 439.92592732 -37.05524332 440.25768351 -34.16015625 440.5 C-33.17724609 440.5825 -32.19433594 440.665 -31.18164062 440.75 C-30.15232422 440.8325 -29.12300781 440.915 -28.0625 441 C-27.09892578 441.0825 -26.13535156 441.165 -25.14257812 441.25 C-8.16349791 442.64404892 8.78103808 443.17683904 25.8125 443.125 C26.72621368 443.1234491 27.63992737 443.12189819 28.58132935 443.12030029 C46.02578483 443.08566978 63.37633344 442.74536297 80.75 441.0625 C81.54398193 440.98789551 82.33796387 440.91329102 83.15600586 440.83642578 C86.80961229 440.44050034 88.88888368 440.07407754 92 438 C92.33 437.01 92.66 436.02 93 435 C92.01 434.01 92.01 434.01 91 433 C90.60235737 431.01178687 90.26224651 429.01055661 90 427 C89.03707031 427.12117188 88.07414063 427.24234375 87.08203125 427.3671875 C44.60874766 432.51264075 1.42856106 432.84792484 -41 427 Z M95 437 C94.34 437.66 93.68 438.32 93 439 C94.65 438.67 96.3 438.34 98 438 C97.01 437.67 96.02 437.34 95 437 Z M96.390625 443.5859375 C49.63459115 448.76920068 3.21115084 449.61477555 -43.60839844 444.52197266 C-47.36666702 444.12975932 -50.38034232 443.95237862 -54 445 C-55.33260239 445.33624359 -56.66584491 445.66997108 -58 446 C-57.45237529 453.15361041 -56.90059445 460.3068916 -56.34594727 467.45996094 C-56.15781889 469.89250454 -55.97063586 472.32512145 -55.78442383 474.7578125 C-55.51633268 478.25801053 -55.24482337 481.75792934 -54.97265625 485.2578125 C-54.89032242 486.34240753 -54.80798859 487.42700256 -54.72315979 488.54446411 C-54.34170354 493.41046202 -53.93017958 498.20070768 -53 503 C-21.61319392 513.27109767 11.38798665 515.02439536 44.1875 513.5625 C45.0851709 513.52334473 45.9828418 513.48418945 46.90771484 513.44384766 C51.04625618 513.23884494 54.94650172 512.8970304 59 512 C61.45671353 511.69499042 63.91529312 511.40484689 66.375 511.125 C85.55335837 509.89385482 85.55335837 509.89385482 102 503 C102.21259785 500.96260394 102.36961158 498.91930414 102.5 496.875 C102.71861498 493.49427549 102.97468116 490.17318934 103.46484375 486.8203125 C104.20145468 481.56187824 104.63448234 476.29145762 105.0625 471 C105.15192871 469.89599854 105.24135742 468.79199707 105.33349609 467.65454102 C105.96654781 459.41100187 106.24188985 451.2645698 106 443 C102.69926348 443 99.6591562 443.21313562 96.390625 443.5859375 Z M-80 485 C-79 487 -79 487 -79 487 Z M-79 487 C-78.67 489.31 -78.34 491.62 -78 494 C-77.34 493.01 -76.68 492.02 -76 491 C-76.99 489.68 -77.98 488.36 -79 487 Z M126 493 C127 495 127 495 127 495 Z M-77 494 C-76 496 -76 496 -76 496 Z M124 497 C125 499 125 499 125 499 Z M-65 510 C-64.67 510.99 -64.34 511.98 -64 513 C-63.34 512.67 -62.68 512.34 -62 512 C-62 511.34 -62 510.68 -62 510 C-62.99 510 -63.98 510 -65 510 Z M111 510 C111 510.99 111 511.98 111 513 C111.66 513 112.32 513 113 513 C112.67 512.01 112.34 511.02 112 510 C111.67 510 111.34 510 111 510 Z M-59 513 C-59 513.66 -59 514.32 -59 515 C-58.34 514.67 -57.68 514.34 -57 514 C-57.66 513.67 -58.32 513.34 -59 513 Z M-45 516 C-45.33 516.66 -45.66 517.32 -46 518 C-45.01 517.67 -44.02 517.34 -43 517 C-43.66 516.67 -44.32 516.34 -45 516 Z M83 519 C84.06645115 520.29633621 84.06645115 520.29633621 86.5625 520.0625 C87.366875 520.041875 88.17125 520.02125 89 520 C88.67 519.01 88.34 518.02 88 517 C85.67642489 516.81509993 85.67642489 516.81509993 83 519 Z M-35 519 C-35 519.66 -35 520.32 -35 521 C-34.34 520.67 -33.68 520.34 -33 520 C-33.66 519.67 -34.32 519.34 -35 519 Z M75 520 C75 520.66 75 521.32 75 522 C78.465 521.505 78.465 521.505 82 521 C81.67 520.34 81.34 519.68 81 519 C77.2236068 518.7018576 77.2236068 518.7018576 75 520 Z M-27 520 C-27.33 520.66 -27.66 521.32 -28 522 C-26.35 521.67 -24.7 521.34 -23 521 C-24.32 520.67 -25.64 520.34 -27 520 Z M-19 521 C-19.33 521.66 -19.66 522.32 -20 523 C-16.7 523.33 -13.4 523.66 -10 524 C-9.67 523.34 -9.34 522.68 -9 522 C-12.3 521.67 -15.6 521.34 -19 521 Z M8 524 C8 524.66 8 525.32 8 526 C17.57 526 27.14 526 37 526 C36.34 525.01 35.68 524.02 35 523 C32.41696222 522.56643474 32.41696222 522.56643474 29.40625 522.671875 C28.29378906 522.67703125 27.18132812 522.6821875 26.03515625 522.6875 C24.86855469 522.708125 23.70195312 522.72875 22.5 522.75 C21.33339844 522.75515625 20.16679687 522.7603125 18.96484375 522.765625 C13.30747281 522.54643279 13.30747281 522.54643279 8 524 Z M39 524 C38.67 524.66 38.34 525.32 38 526 C39.32 525.67 40.64 525.34 42 525 C41.01 524.67 40.02 524.34 39 524 Z " fill="#FEFEFE" transform="translate(120,0)"/>
<path d="M0 0 C9.14920892 6.30114872 14.28200215 15.85781258 16.671875 26.54296875 C17.66669749 32.49277247 18.52715516 38.63190633 18.421875 44.66796875 C17.761875 45.32796875 17.101875 45.98796875 16.421875 46.66796875 C14.296875 46.29296875 14.296875 46.29296875 12.421875 45.66796875 C12.35718018 45.0946582 12.29248535 44.52134766 12.22583008 43.93066406 C10.24983021 23.48537934 10.24983021 23.48537934 -0.90234375 6.9375 C-5.97981282 3.09093252 -11.38960536 2.91990594 -17.578125 3.66796875 C-25.2680231 6.66572564 -29.8860843 12.84536334 -33.17578125 20.27734375 C-34.95823559 25.2879297 -35.60227043 30.41188064 -36.265625 35.66796875 C-36.39517578 36.63347656 -36.52472656 37.59898437 -36.65820312 38.59375 C-36.97326065 40.95084706 -37.27970029 43.30871834 -37.578125 45.66796875 C-39.558125 46.16296875 -39.558125 46.16296875 -41.578125 46.66796875 C-45.0761734 39.89049998 -43.97203928 33.37599302 -41.953125 26.29296875 C-38.14158863 14.8716867 -32.78555649 5.74593184 -22.828125 -1.26953125 C-15.02547598 -4.95411551 -7.42610737 -4.11664648 0 0 Z " fill="#FEFEFE" transform="translate(157.578125,113.33203125)"/>
<path d="M0 0 C1.65 0.33 3.3 0.66 5 1 C4.67 2.65 4.34 4.3 4 6 C3.01 6.33 2.02 6.66 1 7 C0.34 6.34 -0.32 5.68 -1 5 C-0.625 2.375 -0.625 2.375 0 0 Z " fill="#FFFFFF" transform="translate(102,179)"/>
</svg>
